<?xml version="1.0" encoding="UTF-8"?>
<svg version="1.1" xmlns="http://www.w3.org/2000/svg" width="512" height="512">
<path d="M0 0 C1.09331538 -0.00551503 1.09331538 -0.00551503 2.20871794 -0.01114148 C4.64026138 -0.02211507 7.07176199 -0.02601142 9.50332642 -0.02983093 C11.25162896 -0.0361006 12.99993019 -0.04274784 14.74822998 -0.04974365 C20.48250408 -0.07073497 26.21677828 -0.08114472 31.95108032 -0.09111023 C33.93127074 -0.09516029 35.91146102 -0.09927729 37.89165115 -0.10346031 C47.20136869 -0.12250493 56.51107837 -0.13673481 65.82081163 -0.14507228 C76.53480095 -0.15482783 87.24858275 -0.18110641 97.96249902 -0.22157317 C106.26344003 -0.25183968 114.56432192 -0.26655129 122.86531699 -0.26985329 C127.81333429 -0.27219268 132.76112973 -0.28100663 137.70908737 -0.30631447 C142.37297203 -0.32978387 147.03649173 -0.33375352 151.70042038 -0.32355309 C153.39980288 -0.32306209 155.09920451 -0.32925161 156.79853058 -0.34310913 C181.88171629 -0.53598883 203.80857785 7.65325979 221.99014282 25.14717102 C228.49800498 32.00537486 233.36227997 39.43328781 237.74014282 47.77217102 C238.06128052 48.36207825 238.38241821 48.95198547 238.71328735 49.55976868 C258.59776031 89.05125683 245.55264282 183.07626462 245.55264282 196.14717102 C137.64264282 196.14717102 29.73264282 196.14717102 -81.44735718 196.14717102 C-81.44735718 63.32658279 -81.44735718 63.32658279 -72.44735718 46.14717102 C-71.8208728 44.93867493 -71.8208728 44.93867493 -71.18173218 43.70576477 C-59.19652886 22.24949561 -39.65124523 8.59712821 -16.31454468 1.83857727 C-10.81870592 0.51328645 -5.65577903 0.01857691 0 0 Z M-30.69735718 57.39717102 C-51.70711561 82.17361921 -41.44735718 133.04986817 -41.44735718 156.14717102 C40.06264282 156.14717102 121.57264282 156.14717102 205.55264282 156.14717102 C210.88026586 103.27258694 210.88026586 103.27258694 191.74014282 53.20185852 C178.5125682 40.88101281 162.6901491 39.99513062 145.51455688 40.00190735 C143.99591998 39.99891132 142.47728384 39.99550777 140.95864868 39.99172974 C136.85100557 39.98293015 132.74338332 39.98055331 128.6357317 39.97991395 C126.06398365 39.97920108 123.49224083 39.97706228 120.92049408 39.97441673 C111.93296474 39.96517626 102.94545019 39.96108017 93.95791626 39.96186829 C85.60554163 39.96246853 77.25323169 39.95192376 68.90087342 39.93612462 C61.70907358 39.92300987 54.51729478 39.91768605 47.32548308 39.9183237 C43.03944733 39.91857755 38.75346912 39.91578882 34.46744537 39.90514565 C30.43233209 39.89539833 26.39733057 39.89543049 22.36221313 39.90266228 C20.89014267 39.90369997 19.418065 39.90139434 17.94600677 39.89530182 C-1.78795358 39.81898594 -16.74460929 42.7912046 -30.69735718 57.39717102 Z " fill="#000000" transform="translate(121.44735717773438,275.8528289794922)"/>
<path d="M0 0 C2.10004397 0.00849827 4.19734202 -0.02036181 6.29711914 -0.05200195 C19.08746792 -0.11976514 31.74026029 2.0384076 43.11157227 8.19604492 C43.77125 8.54183594 44.43092773 8.88762695 45.1105957 9.24389648 C66.12419807 20.53371792 81.88286104 38.48950249 88.79907227 61.44604492 C91.37014936 70.62690651 92.25520723 79.20283547 92.23266602 88.71557617 C92.23790787 90.03538986 92.24314972 91.35520355 92.24855042 92.7150116 C92.25740409 95.48914268 92.25514953 98.26298474 92.24511719 101.03710938 C92.2359338 103.84633185 92.24284087 106.65472279 92.265625 109.46386719 C92.50577927 139.212847 88.21745814 164.01698132 66.61157227 186.19604492 C57.22889817 195.45867599 46.30414078 202.18900032 33.79907227 206.44604492 C32.20772461 207.03385742 32.20772461 207.03385742 30.58422852 207.63354492 C12.56453499 213.26836765 -11.50176189 213.00287876 -29.20092773 206.44604492 C-30.26569336 206.0722168 -31.33045898 205.69838867 -32.42749023 205.31323242 C-44.05991481 200.86640682 -53.25880773 193.98800121 -62.20092773 185.44604492 C-62.81581055 184.90592773 -63.43069336 184.36581055 -64.06420898 183.80932617 C-77.66103062 171.40027286 -85.96626712 151.074932 -87.49151611 133.00300598 C-87.60961063 129.39110201 -87.64308471 125.79032711 -87.63452148 122.17651367 C-87.63976334 120.85669998 -87.64500519 119.53688629 -87.65040588 118.17707825 C-87.65925956 115.40294716 -87.657005 112.6291051 -87.64697266 109.85498047 C-87.63778927 107.04575799 -87.64469634 104.23736705 -87.66748047 101.42822266 C-87.90762159 71.68087157 -83.62047316 46.87288957 -62.01342773 24.69604492 C-45.13384042 8.05412853 -23.59181638 -0.14473507 0 0 Z M-33.20092773 54.44604492 C-43.15750246 65.35449104 -46.50763062 75.97405861 -46.53686523 90.52026367 C-46.54352203 91.68048538 -46.55017883 92.84070709 -46.55703735 94.03608704 C-46.56713803 96.48611879 -46.57185518 98.93617791 -46.5715332 101.38623047 C-46.57589297 105.10390477 -46.61220564 108.82037825 -46.65014648 112.5378418 C-46.65601808 114.92781173 -46.65998518 117.31778726 -46.66186523 119.70776367 C-46.67623627 120.80505295 -46.6906073 121.90234222 -46.70541382 123.03288269 C-46.62460504 136.92227085 -41.70565582 147.47415505 -32.25561523 157.51245117 C-21.55118099 167.54514966 -8.51709201 170.31550239 5.79907227 170.44604492 C19.12298386 169.45966839 30.87313934 163.9573094 40.04907227 154.19604492 C48.72866765 143.92576672 51.10866792 133.47868131 51.13500977 120.37182617 C51.14166656 119.21160446 51.14832336 118.05138275 51.15518188 116.85600281 C51.16528256 114.40597105 51.16999971 111.95591193 51.16967773 109.50585938 C51.17403751 105.78818507 51.21035017 102.07171159 51.24829102 98.35424805 C51.25416261 95.96427811 51.25812971 93.57430258 51.26000977 91.18432617 C51.2743808 90.0870369 51.28875183 88.98974762 51.30355835 87.85920715 C51.22274958 73.96981899 46.30380035 63.4179348 36.85375977 53.37963867 C17.39810077 35.14488136 -14.29939614 36.49753172 -33.20092773 54.44604492 Z " fill="#000000" transform="translate(201.200927734375,39.553955078125)"/>
<path d="M0 0 C13.53 0 27.06 0 41 0 C41 18.15 41 36.3 41 55 C59.15 55 77.3 55 96 55 C96 68.53 96 82.06 96 96 C77.85 96 59.7 96 41 96 C41 114.15 41 132.3 41 151 C27.47 151 13.94 151 0 151 C0 132.85 0 114.7 0 96 C-18.15 96 -36.3 96 -55 96 C-55 82.47 -55 68.94 -55 55 C-36.85 55 -18.7 55 0 55 C0 36.85 0 18.7 0 0 Z " fill="#000000" transform="translate(376,137)"/>
</svg>
